<?xml version="1.0" encoding="UTF-8" standalone="no"?>
<!-- Created with Inkscape (http://www.inkscape.org/) -->

<svg
   width="42mm"
   height="42mm"
   viewBox="0 0 42 42"
   version="1.1"
   id="svg1"
   xml:space="preserve"
   xmlns="http://www.w3.org/2000/svg"
   xmlns:svg="http://www.w3.org/2000/svg"><defs
     id="defs1"><linearGradient
       id="swatch11"><stop
         style="stop-color:#000000;stop-opacity:1;"
         offset="0"
         id="stop11" /></linearGradient></defs><g
     id="g4"
     transform="matrix(1.9914964,0,0,1.9914964,-20.794112,47.416034)"><g
       id="g3"
       transform="matrix(0.37369985,0,0,0.37369985,8.5301153,-63.465159)"
       style="display:inline;fill:#999999"><g
         id="layer9"
         transform="translate(19.566276,11.565907)"
         style="fill:#999999;fill-opacity:1;stroke:#1a5686;stroke-width:1;stroke-dasharray:none;stroke-opacity:1"><path
           id="path13"
           style="display:inline;fill:#999999;fill-opacity:1;stroke:none;stroke-width:1;stroke-dasharray:none;stroke-opacity:1"
           d="m 8.2807342,127.61186 c -10.0750684,0.36157 -14.0228781,6.80883 -15.4891076,10.6409 4.828241,6.35225 12.3432163,10.08877 20.3221074,10.10436 7.979378,-0.0152 15.494954,-3.75173 20.32349,-10.10436 -1.466118,-3.83202 -5.41372,-10.27932 -15.489107,-10.6409 0,0 -2.071135,0.7471 -4.833,0.7896 -2.761865,-0.0425 -4.8343828,-0.7896 -4.8343828,-0.7896 z"
           transform="translate(0.65131627)" /><circle
           style="fill:#999999;fill-opacity:1;stroke:none;stroke-width:1;stroke-dasharray:none;stroke-opacity:1"
           id="path14"
           cx="14.082291"
           cy="114.47952"
           r="10"
           transform="translate(-0.4177085)" /></g></g><path
       id="path5"
       style="display:inline;fill:#999999"
       d="m 20.986027,-23.809249 c -5.823559,1.19e-4 -10.544457,4.721017 -10.544576,10.544576 -1.66e-4,5.8237602 4.720815,10.5449731 10.544576,10.5450924 0.825069,-0.00829 1.646314,-0.1134004 2.446879,-0.3131592 4.738957,-1.1303532 8.08661,-5.360047 8.098214,-10.2319332 -1.19e-4,-5.823761 -4.721332,-10.544742 -10.545093,-10.544576 z m 0,1.044897 a 9.5,9.5 0 0 1 9.500195,9.499679 9.5,9.5 0 0 1 -9.500195,9.5001949 9.5,9.5 0 0 1 -9.499679,-9.5001949 9.5,9.5 0 0 1 9.499679,-9.499679 z" /></g><rect
     style="fill:#000000;fill-opacity:0;stroke-width:0.264583"
     id="rect4"
     width="116.36915"
     height="61.365086"
     x="-2.0579753"
     y="-0.37417734" /></svg>
